# xmcd CD database file
#
# Track frame offsets:
#	150
#	1424
#	46803
#	61666
#	87527
#	113005
#	134363
#	151595
#	174833
#	192576
#	210364
#	229318
#	249489
#	268382
#	285827
#	303699
#	320007
#
# Disc length: 4567 seconds
#
# Revision: 0
# Processed by: cddbd v1.5.2PL0 Copyright (c) Steve Scherf et al.
# Submitted via: CDex 1.70beta2
#
DISCID=e411d511
DTITLE=misc. - Salsa Cubana
DYEAR=1900
DGENRE=Salsa
TTITLE0=Potpourrit no. 1 - Los Van Van
TTITLE1=Pa la calle - P. Camacho y El Clan
TTITLE2=Tu veras - Yulien FG, y G. de Zona
TTITLE3=El duro - Charanga Habanera
TTITLE4=La celosa - Paulo FG con Jacob Forever
TTITLE5=Control - Manolito S. y su Trabuco
TTITLE6=La que manda - Bamboleo
TTITLE7=Quiereme - P. Alonso y sus Kini Kini
TTITLE8=Pa'que no lloraras - Alain Daniel
TTITLE9=Con quin te ves - Gardi
TTITLE10=El rey de tu cama - P. Camacho y El Clan
TTITLE11=Se me va la vida - P. Alonso y sus Kini Kini
TTITLE12=Soy tu campeon - Los Angeles de la Habana
TTITLE13=La bala de Bili - Pupi y los que Son Son
TTITLE14=Un pariente en el campo - A. Alvarez
TTITLE15=La mentirosa - Charanga Habanera
TTITLE16=???
EXTD=
EXTT0=
EXTT1=
EXTT2=
EXTT3=
EXTT4=
EXTT5=
EXTT6=
EXTT7=
EXTT8=
EXTT9=
EXTT10=
EXTT11=
EXTT12=
EXTT13=
EXTT14=
EXTT15=
EXTT16=
PLAYORDER=
